<svg xmlns="http://www.w3.org/2000/svg" xmlns:xlink="http://www.w3.org/1999/xlink" preserveAspectRatio="xMidYMid meet" width="1920" height="1088" viewBox="0 0 1920 1088" style="width:100%;height:100%"><defs><animate repeatCount="indefinite" dur="5s" begin="0s" xlink:href="#_R_G_L_12_G" fill="freeze" attributeName="opacity" from="0" to="0" keyTimes="0;0.032;0.08;0.864;0.944;1" values="0;0;1;1;0;0" keySplines="0.167 0.111 0.833 0.857;0.167 0.111 0.833 0.857;0.167 1 0.833 1;0.167 0.238 0.833 0.815;0 0 0 0" calcMode="spline"/><animateTransform repeatCount="indefinite" dur="5s" begin="0s" xlink:href="#_R_G_L_12_G" fill="freeze" attributeName="transform" from="0 0" to="0 0" type="scale" additive="sum" keyTimes="0;0.112;0.872;0.944;1" values="0 0;4.42396 4.42396;4.42396 4.42396;0 0;0 0" keySplines="0.558 0 0 1;0 0 0 0;1 0 0.442 1;0 0 0 0" calcMode="spline"/><animateTransform repeatCount="indefinite" dur="5s" begin="0s" xlink:href="#_R_G_L_12_G" fill="freeze" attributeName="transform" from="-81.75 -21.75" to="-81.75 -21.75" type="translate" additive="sum" keyTimes="0;1" values="-81.75 -21.75;-81.75 -21.75" keySplines="0 0 1 1" calcMode="spline"/><animate repeatCount="indefinite" dur="5s" begin="0s" xlink:href="#_R_G_L_11_G" fill="freeze" attributeName="opacity" from="0" to="0" keyTimes="0;0.04;0.16;0.776;0.896;1" values="0;0;1;1;0;0" keySplines="0.167 0.357 0.833 0.643;0.167 0.357 0.833 0.643;0.167 1 0.833 1;0.167 0.357 0.833 0.643;0 0 0 0" calcMode="spline"/><animateTransform repeatCount="indefinite" dur="5s" begin="0s" xlink:href="#_R_G_L_11_G" fill="freeze" attributeName="transform" from="0 0" to="0 0" type="scale" additive="sum" keyTimes="0;0.032;0.136;0.784;0.904;1" values="0 0;0 0;4.42396 4.42396;4.42396 4.42396;0 0;0 0" keySplines="1 0.009 0.426 0.994;1 0.009 0.426 0.994;0 0 0.426 1;0.574 0.007 0 0.99;0 0 0 0" calcMode="spline"/><animateTransform repeatCount="indefinite" dur="5s" begin="0s" xlink:href="#_R_G_L_11_G" fill="freeze" attributeName="transform" from="-96.25 -15.25" to="-96.25 -15.25" type="translate" additive="sum" keyTimes="0;1" values="-96.25 -15.25;-96.25 -15.25" keySplines="0 0 1 1" calcMode="spline"/><animate repeatCount="indefinite" dur="5s" begin="0s" xlink:href="#_R_G_L_10_G" fill="freeze" attributeName="opacity" from="0" to="0" keyTimes="0;0.112;0.16;0.808;0.88;1" values="0;0;1;1;0;0" keySplines="0.167 0.143 0.833 0.857;0.167 0.143 0.833 0.857;0.167 1 0.833 1;0.167 0.214 0.833 0.786;0 0 0 0" calcMode="spline"/><animateTransform repeatCount="indefinite" dur="5s" begin="0s" xlink:href="#_R_G_L_10_G" fill="freeze" attributeName="transform" from="0.03406 0.03406" to="0.03406 0.03406" type="scale" additive="sum" keyTimes="0;0.072;0.176;0.816;0.888;1" values="0.03406 0.03406;0.03406 0.03406;4.42396 4.42396;4.42396 4.42396;0.03406 0.03406;0.03406 0.03406" keySplines="0.457 0.028 0.322 0.992;0.457 0.028 0.322 0.992;0 0 0.346 1;0.678 0.012 0.543 0.981;0 0 0 0" calcMode="spline"/><animateTransform repeatCount="indefinite" dur="5s" begin="0s" xlink:href="#_R_G_L_10_G" fill="freeze" attributeName="transform" from="-46.75 -9.25" to="-46.75 -9.25" type="translate" additive="sum" keyTimes="0;1" values="-46.75 -9.25;-46.75 -9.25" keySplines="0 0 1 1" calcMode="spline"/><animate repeatCount="indefinite" dur="5s" begin="0s" xlink:href="#_R_G_L_9_G" fill="freeze" attributeName="opacity" from="0" to="0" keyTimes="0;0.112;0.176;0.744;0.84;1" values="0;0;1;1;0;0" keySplines="0.167 0.19 0.833 0.81;0.167 0.19 0.833 0.81;0.167 1 0.833 1;0.167 0.286 0.833 0.714;0 0 0 0" calcMode="spline"/><animateTransform repeatCount="indefinite" dur="5s" begin="0s" xlink:href="#_R_G_L_9_G" fill="freeze" attributeName="transform" from="0.03406 0.03406" to="0.03406 0.03406" type="scale" additive="sum" keyTimes="0;0.08;0.152;0.752;0.848;1" values="0.03406 0.03406;0.03406 0.03406;4.42396 4.42396;4.42396 4.42396;0.03406 0.03406;0.03406 0.03406" keySplines="0.528 0.021 0.582 0.999;0.528 0.021 0.582 0.999;0 0 0.587 1;0.418 0.009 0.472 0.972;0 0 0 0" calcMode="spline"/><animateTransform repeatCount="indefinite" dur="5s" begin="0s" xlink:href="#_R_G_L_9_G" fill="freeze" attributeName="transform" from="-48.75 -8.25" to="-48.75 -8.25" type="translate" additive="sum" keyTimes="0;1" values="-48.75 -8.25;-48.75 -8.25" keySplines="0 0 1 1" calcMode="spline"/><animate repeatCount="indefinite" dur="5s" begin="0s" xlink:href="#_R_G_L_8_G" fill="freeze" attributeName="opacity" from="0" to="0" keyTimes="0;0.128;0.184;0.736;0.8;1" values="0;0;1;1;0;0" keySplines="0.167 0.167 0.833 0.833;0.167 0.167 0.833 0.833;0.167 1 0.833 1;0.167 0.19 0.833 0.81;0 0 0 0" calcMode="spline"/><animateTransform repeatCount="indefinite" dur="5s" begin="0s" xlink:href="#_R_G_L_8_G" fill="freeze" attributeName="transform" from="0 0" to="0 0" type="scale" additive="sum" keyTimes="0;0.128;0.184;0.744;0.8;1" values="0 0;0 0;4.42396 4.42396;4.42396 4.42396;0 0;0 0" keySplines="0.167 0.167 0.748 0.984;0.167 0.167 0.748 0.984;0.107 1 0.807 1;0.255 0.014 0.833 0.833;0 0 0 0" calcMode="spline"/><animateTransform repeatCount="indefinite" dur="5s" begin="0s" xlink:href="#_R_G_L_8_G" fill="freeze" attributeName="transform" from="-41.25 -7.25" to="-41.25 -7.25" type="translate" additive="sum" keyTimes="0;1" values="-41.25 -7.25;-41.25 -7.25" keySplines="0 0 1 1" calcMode="spline"/><animate repeatCount="indefinite" dur="5s" begin="0s" xlink:href="#_R_G_L_7_G" fill="freeze" attributeName="opacity" from="0" to="0" keyTimes="0;0.152;0.192;0.744;0.816;1" values="0;0;1;1;0;0" keySplines="0.167 0.119 0.833 0.881;0.167 0.119 0.833 0.881;0.167 1 0.833 1;0.167 0.214 0.833 0.786;0 0 0 0" calcMode="spline"/><animateTransform repeatCount="indefinite" dur="5s" begin="0s" xlink:href="#_R_G_L_7_G" fill="freeze" attributeName="transform" from="0.03406 0.03406" to="0.03406 0.03406" type="scale" additive="sum" keyTimes="0;0.128;0.232;0.72;0.824;1" values="0.03406 0.03406;0.03406 0.03406;4.42396 4.42396;4.42396 4.42396;0.03406 0.03406;0.03406 0.03406" keySplines="0.019 0.296 0.217 1;0.019 0.296 0.217 1;0 0 0.342 1;0.783 0.008 0.981 0.704;0 0 0 0" calcMode="spline"/><animateTransform repeatCount="indefinite" dur="5s" begin="0s" xlink:href="#_R_G_L_7_G" fill="freeze" attributeName="transform" from="-18.25 -7.25" to="-18.25 -7.25" type="translate" additive="sum" keyTimes="0;1" values="-18.25 -7.25;-18.25 -7.25" keySplines="0 0 1 1" calcMode="spline"/><animate repeatCount="indefinite" dur="5s" begin="0s" xlink:href="#_R_G_L_6_G" fill="freeze" attributeName="opacity" from="0" to="0" keyTimes="0;0.168;0.208;0.72;0.8;1" values="0;0;1;1;0;0" keySplines="0.167 0.119 0.833 0.881;0.167 0.119 0.833 0.881;0.167 1 0.833 1;0.167 0.238 0.833 0.762;0 0 0 0" calcMode="spline"/><animateTransform repeatCount="indefinite" dur="5s" begin="0s" xlink:href="#_R_G_L_6_G" fill="freeze" attributeName="transform" from="0.03406 0.03406" to="0.03406 0.03406" type="scale" additive="sum" keyTimes="0;0.152;0.264;0.704;0.816;1" values="0.03406 0.03406;0.03406 0.03406;4.42396 4.42396;4.42396 4.42396;0.03406 0.03406;0.03406 0.03406" keySplines="0.478 0 0.45 0.967;0.478 0 0.45 0.967;0 0.01 0.455 1;0.543 0.005 0.522 1;0 0 0 0" calcMode="spline"/><animateTransform repeatCount="indefinite" dur="5s" begin="0s" xlink:href="#_R_G_L_6_G" fill="freeze" attributeName="transform" from="-41.25 -10.25" to="-41.25 -10.25" type="translate" additive="sum" keyTimes="0;1" values="-41.25 -10.25;-41.25 -10.25" keySplines="0 0 1 1" calcMode="spline"/><animate repeatCount="indefinite" dur="5s" begin="0s" xlink:href="#_R_G_L_5_G" fill="freeze" attributeName="opacity" from="0" to="0" keyTimes="0;0.184;0.232;0.704;0.8;1" values="0;0;1;1;0;0" keySplines="0.167 0.143 0.833 0.857;0.167 0.143 0.833 0.857;0.167 1 0.833 1;0.167 0.286 0.833 0.714;0 0 0 0" calcMode="spline"/><animateTransform repeatCount="indefinite" dur="5s" begin="0s" xlink:href="#_R_G_L_5_G" fill="freeze" attributeName="transform" from="0.03406 0.03406" to="0.03406 0.03406" type="scale" additive="sum" keyTimes="0;0.176;0.288;0.696;0.808;1" values="0.03406 0.03406;0.03406 0.03406;4.42396 4.42396;4.42396 4.42396;0.03406 0.03406;0.03406 0.03406" keySplines="0.018 0.354 0.293 0.987;0.018 0.354 0.293 0.987;0 0 0.293 1;0.707 0.013 0.982 0.646;0 0 0 0" calcMode="spline"/><animateTransform repeatCount="indefinite" dur="5s" begin="0s" xlink:href="#_R_G_L_5_G" fill="freeze" attributeName="transform" from="-45.75 -11.75" to="-45.75 -11.75" type="translate" additive="sum" keyTimes="0;1" values="-45.75 -11.75;-45.75 -11.75" keySplines="0 0 1 1" calcMode="spline"/><animate repeatCount="indefinite" dur="5s" begin="0s" xlink:href="#_R_G_L_4_G" fill="freeze" attributeName="opacity" from="0" to="0" keyTimes="0;0.216;0.256;0.696;0.784;1" values="0;0;1;1;0;0" keySplines="0.167 0.119 0.833 0.881;0.167 0.119 0.833 0.881;0.167 1 0.833 1;0.167 0.262 0.833 0.738;0 0 0 0" calcMode="spline"/><animateTransform repeatCount="indefinite" dur="5s" begin="0s" xlink:href="#_R_G_L_4_G" fill="freeze" attributeName="transform" from="0.03406 0.03406" to="0.03406 0.03406" type="scale" additive="sum" keyTimes="0;0.2;0.312;0.68;0.792;1" values="0.03406 0.03406;0.03406 0.03406;4.42396 4.42396;4.42396 4.42396;0.03406 0.03406;0.03406 0.03406" keySplines="0.789 0.01 0.469 0.987;0.789 0.01 0.469 0.987;0 0 0.469 1;0.531 0.013 0.211 0.99;0 0 0 0" calcMode="spline"/><animateTransform repeatCount="indefinite" dur="5s" begin="0s" xlink:href="#_R_G_L_4_G" fill="freeze" attributeName="transform" from="-27.75 -5.25" to="-27.75 -5.25" type="translate" additive="sum" keyTimes="0;1" values="-27.75 -5.25;-27.75 -5.25" keySplines="0 0 1 1" calcMode="spline"/><animate repeatCount="indefinite" dur="5s" begin="0s" xlink:href="#_R_G_L_3_G" fill="freeze" attributeName="opacity" from="0" to="0" keyTimes="0;0.24;0.28;0.68;0.76;1" values="0;0;1;1;0;0" keySplines="0.167 0.119 0.833 0.881;0.167 0.119 0.833 0.881;0.167 1 0.833 1;0.167 0.238 0.833 0.762;0 0 0 0" calcMode="spline"/><animateTransform repeatCount="indefinite" dur="5s" begin="0s" xlink:href="#_R_G_L_3_G" fill="freeze" attributeName="transform" from="0.03406 0.03406" to="0.03406 0.03406" type="scale" additive="sum" keyTimes="0;0.224;0.328;0.664;0.768;1" values="0.03406 0.03406;0.03406 0.03406;4.42396 4.42396;4.42396 4.42396;0.03406 0.03406;0.03406 0.03406" keySplines="0.157 0.52 0.442 0.853;0.157 0.52 0.442 0.853;0 0.037 0.406 1;0.595 0.004 0.843 0.48;0 0 0 0" calcMode="spline"/><animateTransform repeatCount="indefinite" dur="5s" begin="0s" xlink:href="#_R_G_L_3_G" fill="freeze" attributeName="transform" from="-33.25 -11.25" to="-33.25 -11.25" type="translate" additive="sum" keyTimes="0;1" values="-33.25 -11.25;-33.25 -11.25" keySplines="0 0 1 1" calcMode="spline"/><animate repeatCount="indefinite" dur="5s" begin="0s" xlink:href="#_R_G_L_2_G" fill="freeze" attributeName="opacity" from="0" to="0" keyTimes="0;0.256;0.288;0.672;0.768;1" values="0;0;1;1;0;0" keySplines="0.167 0.095 0.833 0.905;0.167 0.095 0.833 0.905;0.167 1 0.833 1;0.167 0.286 0.833 0.714;0 0 0 0" calcMode="spline"/><animateTransform repeatCount="indefinite" dur="5s" begin="0s" xlink:href="#_R_G_L_2_G" fill="freeze" attributeName="transform" from="0 0" to="0 0" type="scale" additive="sum" keyTimes="0;0.24;0.36;0.656;0.776;1" values="0 0;0 0;4.42396 4.42396;4.42396 4.42396;0 0;0 0" keySplines="1 0 0.153 1;1 0 0.153 1;0 0 0.153 0;0.847 0 0 1;0 0 0 0" calcMode="spline"/><animateTransform repeatCount="indefinite" dur="5s" begin="0s" xlink:href="#_R_G_L_2_G" fill="freeze" attributeName="transform" from="-34.75 -5.75" to="-34.75 -5.75" type="translate" additive="sum" keyTimes="0;1" values="-34.75 -5.75;-34.75 -5.75" keySplines="0 0 1 1" calcMode="spline"/><animate repeatCount="indefinite" dur="5s" begin="0s" xlink:href="#_R_G_L_1_G" fill="freeze" attributeName="opacity" from="0" to="0" keyTimes="0;0.264;0.296;0.664;0.768;1" values="0;0;1;1;0;0" keySplines="0.167 0.095 0.833 0.905;0.167 0.095 0.833 0.905;0.167 1 0.833 1;0.167 0.31 0.833 0.69;0 0 0 0" calcMode="spline"/><animateTransform repeatCount="indefinite" dur="5s" begin="0s" xlink:href="#_R_G_L_1_G" fill="freeze" attributeName="transform" from="0 0" to="0 0" type="scale" additive="sum" keyTimes="0;0.248;0.376;0.648;0.776;1" values="0 0;0 0;4.42396 4.42396;4.42396 4.42396;0 0;0 0" keySplines="0.454 0.515 0.154 1;0.454 0.515 0.154 1;0 0 0.154 0;0.846 0 0.546 0.485;0 0 0 0" calcMode="spline"/><animateTransform repeatCount="indefinite" dur="5s" begin="0s" xlink:href="#_R_G_L_1_G" fill="freeze" attributeName="transform" from="-55.75 -10.75" to="-55.75 -10.75" type="translate" additive="sum" keyTimes="0;1" values="-55.75 -10.75;-55.75 -10.75" keySplines="0 0 1 1" calcMode="spline"/><animate repeatCount="indefinite" dur="5s" begin="0s" xlink:href="#_R_G_L_0_G" fill="freeze" attributeName="opacity" from="0.0077" to="0.0077" keyTimes="0;0.288416;0.344416;0.712416;0.824;1" values="0.0077;0.0077;1;1;0.0077;0.0077" keySplines="0.036 0.541 0 1;0.036 0.541 0 1;0.167 0 0 0;1 0 0.964 0;0 0 0 0" calcMode="spline"/><animateTransform repeatCount="indefinite" dur="5s" begin="0s" xlink:href="#_R_G_L_0_G" fill="freeze" attributeName="transform" from="0 0" to="0 0" type="scale" additive="sum" keyTimes="0;0.272;0.4;0.696;0.824;1" values="0 0;0 0;4.42396 4.42396;4.42396 4.42396;0 0;0 0" keySplines="0.087 0 0 1;0.087 0 0 1;0 0 0 0;1 0 0.913 1;0 0 0 0" calcMode="spline"/><animateTransform repeatCount="indefinite" dur="5s" begin="0s" xlink:href="#_R_G_L_0_G" fill="freeze" attributeName="transform" from="-21.75 -5.75" to="-21.75 -5.75" type="translate" additive="sum" keyTimes="0;1" values="-21.75 -5.75;-21.75 -5.75" keySplines="0 0 1 1" calcMode="spline"/><animate attributeType="XML" attributeName="opacity" dur="5s" from="0" to="1" xlink:href="#time_group"/></defs><g id="_R_G"><g id="_R_G_L_13_G" transform=" translate(960.227, 543.126) scale(4.42396, 4.42396) translate(-216.25, -121.75)"><path id="_R_G_L_13_G_D_0_P_0" fill="#102133" fill-opacity="1" fill-rule="nonzero" d=" M416.25 0.25 C416.25,0.25 16.25,0.25 16.25,0.25 C7.41,0.25 0.25,7.41 0.25,16.25 C0.25,16.25 0.25,227.25 0.25,227.25 C0.25,236.09 7.41,243.25 16.25,243.25 C16.25,243.25 416.25,243.25 416.25,243.25 C425.09,243.25 432.25,236.09 432.25,227.25 C432.25,227.25 432.25,16.25 432.25,16.25 C432.25,7.41 425.09,0.25 416.25,0.25z "/></g><g id="_R_G_L_12_G" transform=" translate(913.775, 467.919)"><path id="_R_G_L_12_G_D_0_P_0" fill="#1d65d4" fill-opacity="1" fill-rule="nonzero" d=" M21.75 0.25 C21.75,0.25 141.75,0.25 141.75,0.25 C153.62,0.25 163.25,9.88 163.25,21.75 C163.25,33.62 153.62,43.25 141.75,43.25 C141.75,43.25 21.75,43.25 21.75,43.25 C9.88,43.25 0.25,33.62 0.25,21.75 C0.25,9.88 9.88,0.25 21.75,0.25z "/></g><g id="_R_G_L_11_G" transform=" translate(951.379, 669.209)"><path id="_R_G_L_11_G_D_0_P_0" fill="#14377c" fill-opacity="1" fill-rule="nonzero" d=" M15.25 0.25 C15.25,0.25 177.25,0.25 177.25,0.25 C185.53,0.25 192.25,6.97 192.25,15.25 C192.25,23.53 185.53,30.25 177.25,30.25 C177.25,30.25 15.25,30.25 15.25,30.25 C6.97,30.25 0.25,23.53 0.25,15.25 C0.25,6.97 6.97,0.25 15.25,0.25z "/></g><g id="_R_G_L_10_G" transform=" translate(320.964, 536.49)"><path id="_R_G_L_10_G_D_0_P_0" fill="#14377c" fill-opacity="1" fill-rule="nonzero" d=" M9.25 0.25 C9.25,0.25 84.25,0.25 84.25,0.25 C89.22,0.25 93.25,4.28 93.25,9.25 C93.25,14.22 89.22,18.25 84.25,18.25 C84.25,18.25 9.25,18.25 9.25,18.25 C4.28,18.25 0.25,14.22 0.25,9.25 C0.25,4.28 4.28,0.25 9.25,0.25z "/></g><g id="_R_G_L_9_G" transform=" translate(1506.586, 386.076)"><path id="_R_G_L_9_G_D_0_P_0" fill="#2c4e74" fill-opacity="1" fill-rule="nonzero" d=" M8.25 0.25 C8.25,0.25 89.25,0.25 89.25,0.25 C93.67,0.25 97.25,3.83 97.25,8.25 C97.25,12.67 93.67,16.25 89.25,16.25 C89.25,16.25 8.25,16.25 8.25,16.25 C3.83,16.25 0.25,12.67 0.25,8.25 C0.25,3.83 3.83,0.25 8.25,0.25z "/></g><g id="_R_G_L_8_G" transform=" translate(1345.112, 271.053)"><path id="_R_G_L_8_G_D_0_P_0" fill="#6b84b5" fill-opacity="1" fill-rule="nonzero" d=" M7.25 0.25 C7.25,0.25 75.25,0.25 75.25,0.25 C79.12,0.25 82.25,3.38 82.25,7.25 C82.25,11.12 79.12,14.25 75.25,14.25 C75.25,14.25 7.25,14.25 7.25,14.25 C3.38,14.25 0.25,11.12 0.25,7.25 C0.25,3.38 3.38,0.25 7.25,0.25z "/></g><g id="_R_G_L_7_G" transform=" translate(1504.374, 686.905)"><path id="_R_G_L_7_G_D_0_P_0" fill="#14377c" fill-opacity="1" fill-rule="nonzero" d=" M7.25 0.25 C7.25,0.25 29.25,0.25 29.25,0.25 C33.12,0.25 36.25,3.38 36.25,7.25 C36.25,11.12 33.12,14.25 29.25,14.25 C29.25,14.25 7.25,14.25 7.25,14.25 C3.38,14.25 0.25,11.12 0.25,7.25 C0.25,3.38 3.38,0.25 7.25,0.25z "/></g><g id="_R_G_L_6_G" transform=" translate(880.596, 824.048)"><path id="_R_G_L_6_G_D_0_P_0" fill="#95acc5" fill-opacity="1" fill-rule="nonzero" d=" M10.25 0.25 C10.25,0.25 72.25,0.25 72.25,0.25 C77.77,0.25 82.25,4.73 82.25,10.25 C82.25,15.77 77.77,20.25 72.25,20.25 C72.25,20.25 10.25,20.25 10.25,20.25 C4.73,20.25 0.25,15.77 0.25,10.25 C0.25,4.73 4.73,0.25 10.25,0.25z "/></g><g id="_R_G_L_5_G" transform=" translate(900.503, 268.841)"><path id="_R_G_L_5_G_D_0_P_0" fill="#14377c" fill-opacity="1" fill-rule="nonzero" d=" M11.75 0.25 C11.75,0.25 79.75,0.25 79.75,0.25 C86.1,0.25 91.25,5.4 91.25,11.75 C91.25,18.1 86.1,23.25 79.75,23.25 C79.75,23.25 11.75,23.25 11.75,23.25 C5.4,23.25 0.25,18.1 0.25,11.75 C0.25,5.4 5.4,0.25 11.75,0.25z "/></g><g id="_R_G_L_4_G" transform=" translate(431.563, 302.02)"><path id="_R_G_L_4_G_D_0_P_0" fill="#2c4e74" fill-opacity="1" fill-rule="nonzero" d=" M5.25 0.25 C5.25,0.25 50.25,0.25 50.25,0.25 C53.01,0.25 55.25,2.49 55.25,5.25 C55.25,8.01 53.01,10.25 50.25,10.25 C50.25,10.25 5.25,10.25 5.25,10.25 C2.49,10.25 0.25,8.01 0.25,5.25 C0.25,2.49 2.49,0.25 5.25,0.25z "/></g><g id="_R_G_L_3_G" transform=" translate(358.568, 669.209)"><path id="_R_G_L_3_G_D_0_P_0" fill="#95acc5" fill-opacity="1" fill-rule="nonzero" d=" M11.25 0.25 C11.25,0.25 55.25,0.25 55.25,0.25 C61.33,0.25 66.25,5.18 66.25,11.25 C66.25,17.33 61.33,22.25 55.25,22.25 C55.25,22.25 11.25,22.25 11.25,22.25 C5.18,22.25 0.25,17.33 0.25,11.25 C0.25,5.18 5.18,0.25 11.25,0.25z "/></g><g id="_R_G_L_2_G" transform=" translate(382.9, 397.136)"><path id="_R_G_L_2_G_D_0_P_0" fill="#6b84b5" fill-opacity="1" fill-rule="nonzero" d=" M5.75 0.25 C5.75,0.25 63.75,0.25 63.75,0.25 C66.79,0.25 69.25,2.71 69.25,5.75 C69.25,8.79 66.79,11.25 63.75,11.25 C63.75,11.25 5.75,11.25 5.75,11.25 C2.71,11.25 0.25,8.79 0.25,5.75 C0.25,2.71 2.71,0.25 5.75,0.25z "/></g><g id="_R_G_L_1_G" transform=" translate(1559.674, 529.854)"><path id="_R_G_L_1_G_D_0_P_0" fill="#6b84b5" fill-opacity="1" fill-rule="nonzero" d=" M10.75 0.25 C10.75,0.25 100.75,0.25 100.75,0.25 C106.55,0.25 111.25,4.95 111.25,10.75 C111.25,16.55 106.55,21.25 100.75,21.25 C100.75,21.25 10.75,21.25 10.75,21.25 C4.95,21.25 0.25,16.55 0.25,10.75 C0.25,4.95 4.95,0.25 10.75,0.25z "/></g><g id="_R_G_L_0_G" transform=" translate(1196.909, 804.14)"><path id="_R_G_L_0_G_D_0_P_0" fill="#2c4e74" fill-opacity="1" fill-rule="nonzero" d=" M5.75 0.25 C5.75,0.25 37.75,0.25 37.75,0.25 C40.79,0.25 43.25,2.71 43.25,5.75 C43.25,8.79 40.79,11.25 37.75,11.25 C37.75,11.25 5.75,11.25 5.75,11.25 C2.71,11.25 0.25,8.79 0.25,5.75 C0.25,2.71 2.71,0.25 5.75,0.25z "/></g></g><g id="time_group"/></svg>